<?xml version="1.0" standalone="no"?>
<!DOCTYPE svg PUBLIC "-//W3C//DTD SVG 20010904//EN"
 "http://www.w3.org/TR/2001/REC-SVG-20010904/DTD/svg10.dtd">
<svg version="1.0" xmlns="http://www.w3.org/2000/svg"
 width="257.000000pt" height="257.000000pt" viewBox="0 0 257.000000 257.000000"
 preserveAspectRatio="xMidYMid meet">
<metadata>
Created by potrace 1.11, written by Peter Selinger 2001-2013
</metadata>
<g transform="translate(0.000000,257.000000) scale(0.100000,-0.100000)"
fill="#000000" stroke="none">
<path d="M1106 2387 c-76 -43 -97 -122 -66 -249 10 -43 11 -61 3 -69 -8 -8
-16 -2 -29 22 l-18 34 -6 -38 c-8 -45 -41 -83 -79 -90 -55 -11 -142 -60 -193
-108 -29 -27 -54 -49 -57 -49 -2 0 -1 27 2 61 5 59 5 60 -13 44 -34 -31 -80
-158 -80 -220 l0 -57 -40 36 c-23 20 -51 36 -64 36 l-24 0 29 -31 c39 -42 38
-81 -6 -168 -30 -59 -35 -79 -35 -139 l0 -70 -34 -12 c-41 -13 -109 -70 -147
-123 -24 -33 -30 -36 -35 -22 -4 9 -1 41 5 70 14 61 3 118 -29 157 l-19 23 -1
-57 c0 -37 -9 -82 -26 -125 -38 -99 -54 -154 -54 -185 0 -47 38 -131 95 -206
l55 -73 0 -78 c0 -121 28 -191 109 -272 62 -62 155 -119 194 -119 8 0 37 -10
64 -22 39 -18 67 -22 153 -22 128 0 203 15 297 60 l73 35 30 -23 c22 -16 48
-23 93 -26 56 -3 72 1 165 41 134 59 294 160 343 217 43 50 84 130 94 183 5
24 19 45 46 67 21 17 46 44 54 60 18 35 45 158 45 204 0 32 2 34 45 39 103 15
180 96 215 227 8 30 26 58 52 83 21 20 33 37 26 37 -34 0 -117 -52 -159 -99
-46 -50 -89 -70 -74 -33 24 57 37 143 32 219 l-6 82 40 35 c38 35 81 47 94 26
3 -5 27 -10 52 -10 43 0 50 4 105 58 32 33 58 67 58 77 0 17 -1 17 -22 -1 -31
-27 -75 -54 -88 -54 -6 0 -2 12 9 26 41 52 16 147 -45 172 -28 12 -29 14 -30
95 -1 65 -6 94 -26 138 -36 79 -50 84 -42 16 l6 -54 -55 5 c-53 4 -56 3 -95
-36 -40 -40 -76 -118 -88 -190 -4 -28 -14 -43 -40 -60 -40 -26 -44 -27 -44 -7
0 55 -71 115 -135 115 -53 0 -153 -28 -202 -56 -28 -16 -44 -21 -49 -13 -12
20 -88 49 -129 49 l-40 1 25 17 c94 62 116 133 60 187 -26 25 -30 34 -24 59 6
27 5 29 -9 17 -32 -26 -49 9 -20 41 15 17 15 18 -5 18 -23 0 -52 -34 -52 -62
0 -31 -19 -29 -50 5 -39 45 -79 61 -136 54 -45 -5 -46 -4 -39 22 3 14 15 38
26 54 24 33 16 34 -35 4z"/>
<path d="M1858 2360 c-64 -40 -100 -97 -106 -164 -6 -68 14 -106 79 -153 28
-20 56 -48 62 -62 11 -25 11 -25 15 15 2 25 -5 61 -18 93 -32 83 -22 185 27
264 21 33 21 37 6 37 -10 0 -39 -14 -65 -30z"/>
<path d="M755 2262 c-35 -22 -50 -39 -59 -67 -5 -19 -3 -21 29 -17 19 2 42 -1
50 -8 21 -18 18 -80 -5 -115 -11 -16 -20 -33 -20 -37 0 -13 102 35 131 63 25
24 29 34 29 82 0 45 -5 61 -26 86 -31 37 -81 42 -129 13z"/>
<path d="M2361 2191 c-24 -33 -26 -84 -8 -146 l12 -39 23 29 c18 22 23 40 21
75 -1 25 -6 50 -12 57 -5 7 -6 21 -2 33 9 29 -10 25 -34 -9z"/>
<path d="M1626 2116 c9 -63 -1 -94 -39 -116 l-32 -20 38 0 c30 0 46 7 69 30
27 28 30 36 25 75 -5 51 -21 75 -48 75 -16 0 -18 -6 -13 -44z"/>
<path d="M229 1587 c-30 -20 -34 -28 -37 -74 -3 -59 4 -66 75 -78 40 -6 71
-31 87 -68 8 -20 36 24 36 58 0 43 -16 55 -72 55 -52 0 -88 24 -88 58 0 25 31
52 59 52 12 0 19 4 16 10 -10 16 -40 11 -76 -13z"/>
</g>
</svg>
